<?xml version="1.0" standalone="no"?>
<!DOCTYPE svg PUBLIC "-//W3C//DTD SVG 20010904//EN"
 "http://www.w3.org/TR/2001/REC-SVG-20010904/DTD/svg10.dtd">
<svg version="1.0" xmlns="http://www.w3.org/2000/svg"
 width="700.000000pt" height="700.000000pt" viewBox="0 0 700.000000 700.000000"
 preserveAspectRatio="xMidYMid meet">
<metadata>
Created by potrace 1.11, written by Peter Selinger 2001-2013
</metadata>
<g transform="translate(0.000000,700.000000) scale(0.100000,-0.100000)"
fill="#000000" stroke="none">
<path d="M3271 6529 c-521 -40 -1016 -211 -1456 -502 -314 -208 -634 -528
-842 -842 -405 -611 -577 -1335 -487 -2056 15 -124 42 -278 51 -292 3 -5 22
40 43 99 136 400 387 728 730 956 538 357 1209 414 1795 151 202 -91 337 -182
551 -373 159 -142 243 -201 382 -270 342 -168 734 -191 1085 -65 517 187 864
630 928 1185 37 330 -70 708 -278 982 -143 188 -409 417 -676 582 -544 336
-1191 494 -1826 445z"/>
<path d="M6420 4061 c-87 -267 -238 -509 -444 -717 -170 -170 -319 -275 -531
-374 -262 -122 -492 -173 -785 -174 -185 -1 -280 10 -445 51 -316 77 -577 220
-851 465 -160 143 -264 218 -395 284 -324 162 -704 192 -1047 82 -558 -178
-936 -666 -977 -1258 -15 -224 44 -500 154 -717 237 -470 932 -954 1633 -1138
270 -70 487 -98 768 -98 302 1 547 35 841 119 363 103 767 313 1074 559 128
102 338 312 440 440 360 450 591 1000 661 1576 20 161 22 499 5 644 -15 122
-51 336 -60 351 -3 6 -22 -37 -41 -95z"/>
</g>
</svg>
