<?xml version="1.0" encoding="utf-8"?>
<!-- Generator: Adobe Illustrator 22.0.0, SVG Export Plug-In . SVG Version: 6.00 Build 0)  -->
<svg version="1.1" id="Layer_1" xmlns:sketch="http://www.bohemiancoding.com/sketch/ns"
	 xmlns="http://www.w3.org/2000/svg" xmlns:xlink="http://www.w3.org/1999/xlink" x="0px" y="0px" viewBox="0 0 98 97"
	 style="enable-background:new 0 0 98 97;" xml:space="preserve">
<style type="text/css">
	.st0{fill:#FF5100;}
	.st1{fill:#0071CE;}
</style>
<title>yin_yang</title>
<description>Created with Sketch (http://www.bohemiancoding.com/sketch)</description>
<g>
	<path class="st0" d="M48.7,47.1c-14.4,2.8-23.8,16.7-21,31.1c2.8,14.4,19.4,19.5,14,18.6C21.8,93.9,5,78.7,0.9,57.8
		C-4.2,31.3,13.1,5.6,39.7,0.4C52.6-2.1,65,6.4,67.6,19.2C70.1,32.2,61.6,44.6,48.7,47.1z"/>
	<path class="st1" d="M58.3,96.6C45.4,99.1,33,90.6,30.4,77.8c-2.5-12.9,5.9-25.4,18.8-27.9c14.4-2.8,23.8-16.7,21-31.1
		C67.5,4.3,50.9-0.7,56.3,0.1c19.9,3,36.7,18.2,40.8,39.1C102.2,65.7,84.9,91.4,58.3,96.6z"/>
</g>
</svg>
